<?xml version="1.0" standalone="no"?>
<!DOCTYPE svg PUBLIC "-//W3C//DTD SVG 20010904//EN"
 "http://www.w3.org/TR/2001/REC-SVG-20010904/DTD/svg10.dtd">
<svg version="1.0" xmlns="http://www.w3.org/2000/svg"
 width="60.000000pt" height="60.000000pt" viewBox="0 0 60.000000 60.000000"
 preserveAspectRatio="xMidYMid meet">

<g transform="translate(0.000000,60.000000) scale(0.100000,-0.100000)"
fill="#000000" stroke="none">
<path d="M85 590 c-3 -5 -1 -18 5 -29 16 -31 12 -36 -30 -36 -55 -1 -66 -15
-52 -63 7 -21 20 -46 31 -56 18 -16 18 -18 -5 -74 -35 -86 -40 -119 -18 -143
10 -11 24 -17 32 -14 8 3 21 -3 28 -12 18 -24 17 -33 -1 -33 -21 0 -29 -44
-13 -76 24 -51 94 -67 137 -31 21 18 182 17 203 0 42 -36 112 -20 136 31 16
32 8 76 -13 76 -18 0 -19 9 -1 33 7 9 20 15 28 12 8 -3 22 3 32 14 22 24 17
57 -18 143 -23 56 -23 58 -5 74 11 10 24 35 31 56 14 48 3 62 -52 63 -43 0
-46 5 -29 37 18 34 -3 44 -56 24 -25 -10 -52 -15 -60 -12 -26 10 -16 -4 32
-49 45 -40 47 -44 35 -69 -19 -41 -14 -80 13 -120 17 -26 25 -50 25 -81 0 -24
4 -47 10 -50 15 -9 12 -20 -9 -46 -18 -22 -19 -22 -18 -4 2 15 -5 21 -26 23
-37 4 -87 -45 -87 -86 0 -34 -14 -42 -70 -42 -56 0 -70 8 -70 42 0 41 -50 90
-87 86 -21 -2 -28 -8 -26 -23 1 -18 0 -18 -18 4 -21 26 -24 37 -9 46 17 11 12
136 -7 157 -15 17 -15 18 13 18 42 0 72 -24 67 -52 -7 -34 31 -76 80 -89 49
-13 121 -5 154 16 21 14 23 14 23 0 0 -8 5 -15 11 -15 8 0 10 24 5 83 -4 45
-8 104 -9 130 -2 48 -15 67 -49 67 -21 0 -48 -27 -48 -48 0 -27 14 -42 46 -51
16 -4 30 -14 32 -23 3 -13 -2 -13 -47 0 l-50 16 -3 60 c-3 58 -4 62 -37 77
-33 15 -34 17 -13 23 12 4 38 6 57 5 47 -5 55 8 11 16 -24 5 -54 1 -87 -9 -47
-16 -55 -16 -90 -2 -46 19 -56 20 -64 6z m73 -29 c10 -6 8 -12 -7 -25 -19 -17
-20 -17 -36 14 -16 32 -16 32 7 25 13 -4 29 -11 36 -14z m327 -12 c-16 -30
-17 -30 -37 -12 -20 18 -20 18 9 30 42 18 45 16 28 -18z m91 -53 c6 -17 -24
-86 -37 -86 -13 0 -11 7 7 35 20 30 11 45 -27 45 -18 0 -28 4 -24 10 10 16 75
12 81 -4z m-331 -26 c0 -18 -6 -26 -23 -28 -13 -2 -25 3 -28 12 -10 26 4 48
28 44 17 -2 23 -10 23 -28z m160 0 c0 -18 -6 -26 -23 -28 -13 -2 -25 3 -28 12
-10 26 4 48 28 44 17 -2 23 -10 23 -28z m125 -10 c0 -5 -4 -10 -10 -10 -5 0
-10 5 -10 10 0 6 5 10 10 10 6 0 10 -4 10 -10z m-142 -97 c57 -42 16 -102 -75
-110 -77 -7 -152 43 -127 85 32 52 147 66 202 25z m-308 -58 c0 -42 -2 -45
-26 -45 -22 0 -24 3 -18 23 25 81 44 91 44 22z m469 23 c24 -65 24 -68 -3 -68
-24 0 -26 3 -26 45 0 48 15 60 29 23z"/>
<path d="M210 470 c0 -5 5 -10 10 -10 6 0 10 5 10 10 0 6 -4 10 -10 10 -5 0
-10 -4 -10 -10z"/>
<path d="M370 470 c0 -5 5 -10 10 -10 6 0 10 5 10 10 0 6 -4 10 -10 10 -5 0
-10 -4 -10 -10z"/>
<path d="M232 348 c-28 -28 3 -83 33 -58 8 7 15 20 15 29 0 17 -18 41 -30 41
-3 0 -11 -5 -18 -12z m28 -28 c0 -5 -4 -10 -10 -10 -5 0 -10 5 -10 10 0 6 5
10 10 10 6 0 10 -4 10 -10z"/>
<path d="M332 348 c-28 -28 3 -83 33 -58 8 7 15 20 15 29 0 17 -18 41 -30 41
-3 0 -11 -5 -18 -12z m28 -28 c0 -5 -4 -10 -10 -10 -5 0 -10 5 -10 10 0 6 5
10 10 10 6 0 10 -4 10 -10z"/>
<path d="M267 204 c-14 -14 -6 -19 33 -19 22 0 39 4 37 10 -4 12 -60 19 -70 9z"/>
</g>
</svg>
